<svg width="24" height="24" viewBox="0 0 24 24" fill="none" xmlns="http://www.w3.org/2000/svg">
<path d="M12.5207 12.084C9.63223 6.672 11.9008 1.908 13.1777 0C6.53306 0.228 1.21488 5.496 1.21488 11.988C1.21488 12.156 1.23967 12.324 1.23967 12.492C2.00827 12.168 2.83884 11.988 3.71901 11.988C5.77686 11.988 7.66116 12.984 8.80165 14.568C9.83726 14.8568 10.7479 15.4635 11.3963 16.2968C12.0447 17.1301 12.3958 18.1448 12.3967 19.188C12.3967 21.012 11.3182 22.584 9.7686 23.4C10.9835 23.784 12.2851 24 13.624 24C17.9628 24 21.781 21.84 24 18.576C21.0744 18.852 15.3471 17.412 12.5207 12.084Z" fill="#2F343A"/>
<path d="M7.43802 16.788H7.21488C6.69421 15.396 5.33058 14.388 3.71901 14.388C1.66116 14.388 0 15.996 0 17.988C0 19.98 1.66116 21.588 3.71901 21.588H7.43802C8.80165 21.588 9.91735 20.508 9.91735 19.188C9.91735 17.868 8.80165 16.788 7.43802 16.788Z" fill="#2F343A"/>
</svg>
