<svg width="32" height="32" viewBox="0 0 32 32" fill="none" xmlns="http://www.w3.org/2000/svg">
<path fill-rule="evenodd" clip-rule="evenodd" d="M16 0C13.3605 0.00827703 10.811 0.96027 8.812 2.684C7.28 4.004 6.17 5.724 5.884 7.45C2.532 8.19 0 11.11 0 14.636C0 18.732 3.416 22 7.562 22H15V11C15 10.7348 15.1054 10.4804 15.2929 10.2929C15.4804 10.1054 15.7348 10 16 10C16.2652 10 16.5196 10.1054 16.7071 10.2929C16.8946 10.4804 17 10.7348 17 11V22H25.376C29.004 22 32 19.14 32 15.546C32 12.274 29.516 9.608 26.332 9.158C25.846 3.998 21.38 0 16 0ZM15.292 31.708C15.3849 31.8011 15.4952 31.875 15.6167 31.9254C15.7382 31.9758 15.8685 32.0018 16 32.0018C16.1315 32.0018 16.2618 31.9758 16.3833 31.9254C16.5048 31.875 16.6151 31.8011 16.708 31.708L22.708 25.708C22.8958 25.5202 23.0013 25.2656 23.0013 25C23.0013 24.7344 22.8958 24.4798 22.708 24.292C22.5202 24.1042 22.2656 23.9987 22 23.9987C21.7344 23.9987 21.4798 24.1042 21.292 24.292L17 28.586V22H15V28.586L10.708 24.292C10.5202 24.1042 10.2656 23.9987 10 23.9987C9.73445 23.9987 9.47977 24.1042 9.292 24.292C9.10423 24.4798 8.99874 24.7344 8.99874 25C8.99874 25.2656 9.10423 25.5202 9.292 25.708L15.292 31.708Z" fill="white"/>
</svg>
