<svg width="32" height="32" viewBox="0 0 32 32" fill="none" xmlns="http://www.w3.org/2000/svg">
<path fill-rule="evenodd" clip-rule="evenodd" d="M16.0002 3.19995C16.4245 3.19995 16.8315 3.36852 17.1316 3.66858C17.4316 3.96864 17.6002 4.3756 17.6002 4.79995V6.39995C17.6002 6.8243 17.4316 7.23126 17.1316 7.53132C16.8315 7.83138 16.4245 7.99995 16.0002 7.99995C15.5758 7.99995 15.1689 7.83138 14.8688 7.53132C14.5688 7.23126 14.4002 6.8243 14.4002 6.39995V4.79995C14.4002 4.3756 14.5688 3.96864 14.8688 3.66858C15.1689 3.36852 15.5758 3.19995 16.0002 3.19995V3.19995ZM22.4002 16C22.4002 17.6973 21.7259 19.3252 20.5257 20.5254C19.3254 21.7257 17.6976 22.4 16.0002 22.4C14.3028 22.4 12.6749 21.7257 11.4747 20.5254C10.2745 19.3252 9.60019 17.6973 9.60019 16C9.60019 14.3026 10.2745 12.6747 11.4747 11.4745C12.6749 10.2742 14.3028 9.59995 16.0002 9.59995C17.6976 9.59995 19.3254 10.2742 20.5257 11.4745C21.7259 12.6747 22.4002 14.3026 22.4002 16V16ZM21.6578 23.9199L22.789 25.0511C23.0908 25.3426 23.4949 25.5039 23.9144 25.5002C24.334 25.4966 24.7353 25.3283 25.0319 25.0317C25.3286 24.735 25.4968 24.3337 25.5005 23.9142C25.5041 23.4947 25.3428 23.0905 25.0514 22.7888L23.9202 21.6576C23.6184 21.3661 23.2143 21.2048 22.7948 21.2085C22.3752 21.2121 21.9739 21.3804 21.6773 21.677C21.3806 21.9737 21.2124 22.375 21.2087 22.7945C21.2051 23.214 21.3663 23.6182 21.6578 23.9199V23.9199ZM25.0498 6.94875C25.3497 7.2488 25.5183 7.65569 25.5183 8.07995C25.5183 8.50421 25.3497 8.91111 25.0498 9.21115L23.9202 10.3424C23.7726 10.4952 23.596 10.6171 23.4008 10.7009C23.2056 10.7848 22.9957 10.8289 22.7832 10.8308C22.5708 10.8326 22.3601 10.7921 22.1635 10.7117C21.9668 10.6312 21.7882 10.5124 21.638 10.3622C21.4877 10.212 21.3689 10.0333 21.2885 9.83668C21.208 9.64004 21.1675 9.42936 21.1694 9.21691C21.1712 9.00446 21.2154 8.79451 21.2992 8.5993C21.3831 8.4041 21.505 8.22755 21.6578 8.07995L22.789 6.94875C23.089 6.6488 23.4959 6.48029 23.9202 6.48029C24.3445 6.48029 24.7513 6.6488 25.0514 6.94875H25.0498ZM27.2002 17.6C27.6245 17.6 28.0315 17.4314 28.3316 17.1313C28.6316 16.8313 28.8002 16.4243 28.8002 16C28.8002 15.5756 28.6316 15.1686 28.3316 14.8686C28.0315 14.5685 27.6245 14.4 27.2002 14.4H25.6002C25.1758 14.4 24.7689 14.5685 24.4688 14.8686C24.1688 15.1686 24.0002 15.5756 24.0002 16C24.0002 16.4243 24.1688 16.8313 24.4688 17.1313C24.7689 17.4314 25.1758 17.6 25.6002 17.6H27.2002ZM16.0002 23.9999C16.4245 23.9999 16.8315 24.1685 17.1316 24.4686C17.4316 24.7686 17.6002 25.1756 17.6002 25.5999V27.1999C17.6002 27.6243 17.4316 28.0313 17.1316 28.3313C16.8315 28.6314 16.4245 28.7999 16.0002 28.7999C15.5758 28.7999 15.1689 28.6314 14.8688 28.3313C14.5688 28.0313 14.4002 27.6243 14.4002 27.1999V25.5999C14.4002 25.1756 14.5688 24.7686 14.8688 24.4686C15.1689 24.1685 15.5758 23.9999 16.0002 23.9999V23.9999ZM8.0802 10.3424C8.22875 10.491 8.40512 10.6089 8.59926 10.6894C8.79339 10.7699 9.00147 10.8114 9.21163 10.8115C9.42179 10.8115 9.6299 10.7702 9.82409 10.6899C10.0183 10.6095 10.1947 10.4917 10.3434 10.3432C10.4921 10.1946 10.61 10.0182 10.6905 9.82409C10.771 9.62996 10.8124 9.42187 10.8125 9.21172C10.8126 9.00156 10.7713 8.79344 10.6909 8.59926C10.6106 8.40507 10.4927 8.22861 10.3442 8.07995L9.21139 6.94875C8.90963 6.6573 8.50547 6.49603 8.08595 6.49967C7.66644 6.50332 7.26514 6.67159 6.96849 6.96824C6.67183 7.26489 6.50356 7.66619 6.49992 8.08571C6.49627 8.50522 6.65754 8.90939 6.94899 9.21115L8.0802 10.3424V10.3424ZM10.3426 23.9199L9.21139 25.0511C8.90963 25.3426 8.50547 25.5039 8.08595 25.5002C7.66644 25.4966 7.26514 25.3283 6.96849 25.0317C6.67183 24.735 6.50356 24.3337 6.49992 23.9142C6.49627 23.4947 6.65754 23.0905 6.94899 22.7888L8.0802 21.6576C8.38196 21.3661 8.78612 21.2048 9.20564 21.2085C9.62515 21.2121 10.0265 21.3804 10.3231 21.677C10.6198 21.9737 10.788 22.375 10.7917 22.7945C10.7953 23.214 10.634 23.6182 10.3426 23.9199V23.9199ZM6.4002 17.6C6.82454 17.6 7.23151 17.4314 7.53157 17.1313C7.83162 16.8313 8.0002 16.4243 8.0002 16C8.0002 15.5756 7.83162 15.1686 7.53157 14.8686C7.23151 14.5685 6.82454 14.4 6.4002 14.4H4.8002C4.37585 14.4 3.96888 14.5685 3.66882 14.8686C3.36877 15.1686 3.2002 15.5756 3.2002 16C3.2002 16.4243 3.36877 16.8313 3.66882 17.1313C3.96888 17.4314 4.37585 17.6 4.8002 17.6H6.4002Z" fill="white"/>
</svg>
